<svg width="114" height="24" viewBox="0 0 114 24" fill="none" xmlns="http://www.w3.org/2000/svg">
<g id="&#208;&#184;&#208;&#186;&#208;&#190;&#208;&#189;&#209;&#134;&#208;&#184;">
<g id="Vector">
<path d="M17.0828 5.65644C17.0828 4.95569 17.6518 4.38761 18.3537 4.38761C19.0556 4.38761 19.6246 4.95569 19.6246 5.65644C19.6246 6.35719 19.0556 6.92526 18.3537 6.92526C17.6518 6.92526 17.0828 6.35719 17.0828 5.65644Z" fill="black"/>
<path fill-rule="evenodd" clip-rule="evenodd" d="M11.9991 5.97364C8.66512 5.97364 5.96234 8.67199 5.96234 12.0006C5.96234 15.3292 8.66512 18.0275 11.9991 18.0275C15.3332 18.0275 18.036 15.3292 18.036 12.0006C18.036 8.67199 15.3332 5.97364 11.9991 5.97364ZM7.8687 12.0006C7.8687 9.72315 9.718 7.87688 11.9991 7.87688C14.2803 7.87688 16.1296 9.72315 16.1296 12.0006C16.1296 14.278 14.2803 16.1243 11.9991 16.1243C9.718 16.1243 7.8687 14.278 7.8687 12.0006Z" fill="black"/>
<path fill-rule="evenodd" clip-rule="evenodd" d="M18.6828 0.368705C14.2771 -0.122902 9.72292 -0.122902 5.31728 0.368705C2.76014 0.654026 0.695764 2.66513 0.395131 5.23137C-0.13171 9.72843 -0.13171 14.2716 0.395131 18.7687C0.695764 21.3349 2.76014 23.346 5.31728 23.6313C9.72292 24.1229 14.2771 24.1229 18.6828 23.6313C21.2399 23.346 23.3042 21.3349 23.6049 18.7687C24.1317 14.2716 24.1317 9.72843 23.6049 5.23137C23.3042 2.66513 21.2399 0.654026 18.6828 0.368705ZM5.52902 2.26016C9.79396 1.78427 14.206 1.78427 18.471 2.26016C20.1615 2.44878 21.5155 3.78057 21.7115 5.45246C22.2211 9.80266 22.2211 14.1974 21.7115 18.5475C21.5155 20.2195 20.1615 21.5512 18.471 21.7399C14.206 22.2157 9.79396 22.2157 5.52902 21.7399C3.83858 21.5512 2.48444 20.2195 2.28858 18.5475C1.77895 14.1974 1.77895 9.80266 2.28858 5.45246C2.48444 3.78057 3.83858 2.44878 5.52902 2.26016Z" fill="black"/>
</g>
<path id="Vector_2" fill-rule="evenodd" clip-rule="evenodd" d="M49.913 14.5371C49.9721 14.5571 50.0317 14.5711 50.0913 14.5798C50.1563 14.7326 50.2402 14.9301 50.3382 15.161C50.5772 15.7247 50.8993 16.4872 51.2317 17.2825C51.9096 18.9046 52.5935 20.5767 52.7445 21.0553C52.9315 21.6469 53.1291 22.0492 53.3448 22.3239C53.4564 22.4659 53.5854 22.5898 53.7364 22.6837C53.8124 22.731 53.8927 22.7697 53.9765 22.7986C53.9801 22.8 53.9838 22.8012 53.9875 22.8024C54.4195 22.9655 54.8133 22.8976 55.0599 22.8145C55.1918 22.77 55.2986 22.7164 55.3742 22.6729C55.4128 22.6507 55.4454 22.63 55.4714 22.6125L55.4775 22.6084L59.2924 20.2294L63.6989 23.6077C63.764 23.6575 63.8349 23.6994 63.9101 23.7322C64.4395 23.9631 64.952 24.0437 65.4343 23.9778C65.9156 23.9121 66.2979 23.7099 66.5825 23.4822C66.8611 23.2593 67.0499 23.0096 67.1676 22.8241C67.2277 22.7294 67.2728 22.6455 67.3045 22.5814C67.3205 22.5492 67.3334 22.5214 67.3432 22.4991L67.356 22.4697L67.3608 22.4581L67.3628 22.4532L67.3637 22.4509L67.3645 22.4487C67.3878 22.3908 67.4054 22.3309 67.4176 22.2698L71.4405 1.98795C71.4533 1.92309 71.4598 1.85711 71.4598 1.79098C71.4598 1.19704 71.236 0.632273 70.7098 0.289565C70.2601 -0.00334768 69.759 -0.015955 69.4423 0.00807192C69.1008 0.0340021 68.7854 0.118326 68.5736 0.185696C68.4634 0.220764 68.3711 0.254591 68.3046 0.2804C68.2711 0.293372 68.2436 0.304508 68.2232 0.312998L68.2078 0.31945L45.6472 9.16966L45.6442 9.17074C45.6299 9.176 45.6114 9.18289 45.5895 9.19139C45.5458 9.2084 45.4872 9.23229 45.4189 9.26334C45.2855 9.32381 45.0985 9.41816 44.9065 9.54964C44.5998 9.75967 43.8946 10.3348 44.0133 11.2842C44.1081 12.0416 44.6269 12.5067 44.943 12.7304C45.1166 12.8532 45.2815 12.9409 45.4016 12.9982C45.4573 13.0246 45.573 13.0716 45.6232 13.0921L45.6359 13.0973L49.913 14.5371ZM68.9974 2.18383L68.9942 2.18521C68.983 2.1901 68.9716 2.19477 68.9603 2.19925L46.3722 11.0602C46.3604 11.0648 46.3485 11.0693 46.3366 11.0735L46.324 11.0782C46.3096 11.0839 46.2852 11.0937 46.2547 11.1075C46.2374 11.1153 46.2193 11.1239 46.2009 11.1331C46.2262 11.1474 46.2504 11.1597 46.272 11.17C46.2926 11.1798 46.3084 11.1866 46.317 11.1901L50.559 12.6182C50.6367 12.6444 50.709 12.6789 50.7755 12.7208L64.7823 4.52123L64.7954 4.51348C64.8057 4.50744 64.819 4.4997 64.8351 4.49061C64.867 4.47259 64.9108 4.44861 64.9629 4.42208C65.0601 4.37261 65.2156 4.29917 65.3908 4.24501C65.5128 4.20731 65.8726 4.10109 66.2615 4.22583C66.5015 4.30281 66.75 4.46831 66.9115 4.74867C66.9919 4.88796 67.0346 5.02788 67.0553 5.15597C67.1104 5.35774 67.1017 5.55699 67.0587 5.729C66.9658 6.09954 66.7054 6.38857 66.4685 6.60964C66.2656 6.79917 63.6397 9.33123 61.0492 11.8308C59.7573 13.0773 58.4786 14.3116 57.5229 15.234L56.8951 15.8401L64.8213 21.9168C65.003 21.9818 65.1105 21.9786 65.1603 21.9717C65.2195 21.9636 65.268 21.9408 65.3175 21.9012C65.3729 21.857 65.4213 21.797 65.4575 21.7399L65.459 21.7376L69.3607 2.06662C69.3028 2.08053 69.2442 2.09711 69.1878 2.11506C69.1238 2.1354 69.0711 2.15479 69.0362 2.16832C69.0189 2.17503 69.0065 2.18012 68.9997 2.18293L68.9974 2.18383ZM57.5761 18.9135L55.9948 17.7011L55.6116 20.1385L57.5761 18.9135ZM54.5442 15.2955L56.1167 13.7773C57.0725 12.8547 58.3513 11.6204 59.6433 10.3737L60.956 9.1073L52.1551 14.2593L52.2023 14.3707C52.4421 14.9364 52.7656 15.7022 53.0998 16.5018C53.3497 17.0996 53.611 17.7292 53.8491 18.3121L54.2311 15.8818C54.2679 15.6475 54.3824 15.4447 54.5442 15.2955Z" fill="black"/>
<g id="Vector_3">
<path d="M97.9993 4.98039C97.7867 4.94933 97.5699 4.992 97.385 5.10129H97.3692C96.9399 5.35296 96.5531 5.67105 96.2233 6.04372C95.9492 6.36062 95.8005 6.68127 95.7615 6.98991C95.7382 7.17389 95.7539 7.35787 95.8088 7.53359L95.8283 7.5456C96.1369 8.45274 96.5402 9.32533 97.0328 10.1468C97.6674 11.301 98.4483 12.3684 99.3562 13.3226L99.3832 13.3616L99.4261 13.3932L99.4531 13.4247L99.4846 13.4518C100.442 14.3623 101.512 15.1469 102.669 15.7864C103.99 16.5058 104.792 16.846 105.274 16.9872V16.9947C105.415 17.0375 105.543 17.057 105.672 17.057C106.083 17.027 106.471 16.8604 106.775 16.5839C107.146 16.254 107.461 15.8657 107.707 15.4343V15.4267C107.937 14.9927 107.859 14.5819 107.526 14.3041C106.86 13.7217 106.14 13.2045 105.375 12.7594C104.863 12.4815 104.342 12.6498 104.131 12.9314L103.682 13.4984C103.451 13.7799 103.032 13.7408 103.032 13.7408L103.02 13.7484C99.8954 12.9501 99.0618 9.78639 99.0618 9.78639C99.0618 9.78639 99.0228 9.35614 99.3119 9.13684L99.8751 8.68328C100.145 8.464 100.332 7.94435 100.043 7.43146C99.6013 6.66562 99.0852 5.94501 98.5024 5.28001C98.375 5.12324 98.1962 5.01657 97.9978 4.97889L97.9993 4.98039Z" fill="black"/>
<path d="M103.281 3.60496C102.965 3.60496 102.708 3.86112 102.708 4.17711C102.708 4.49309 102.965 4.74925 103.281 4.74925C104.728 4.74925 105.93 5.22221 106.88 6.12783C107.369 6.62376 107.749 7.21079 107.999 7.85318C108.25 8.49799 108.364 9.18556 108.335 9.8743C108.321 10.19 108.566 10.4567 108.882 10.4701C109.198 10.4836 109.465 10.2385 109.478 9.92281C109.514 9.07558 109.374 8.23024 109.066 7.43833C108.757 6.64646 108.289 5.92486 107.688 5.31737L107.676 5.30636C106.498 4.17921 105.004 3.60496 103.281 3.60496Z" fill="black"/>
<path d="M103.24 5.48678C102.924 5.48678 102.668 5.74294 102.668 6.05893C102.668 6.37491 102.924 6.63107 103.24 6.63107H103.259C104.303 6.70465 105.063 7.05267 105.596 7.62395C106.141 8.2123 106.423 8.94307 106.402 9.84729C106.395 10.1631 106.645 10.4252 106.961 10.4325C107.277 10.4398 107.539 10.1897 107.546 9.87372C107.574 8.68655 107.192 7.66282 106.434 6.84542L106.433 6.84434C105.659 6.01349 104.597 5.57395 103.317 5.48806L103.298 5.48678H103.24Z" fill="black"/>
<path d="M103.219 7.40293C102.903 7.38632 102.634 7.62865 102.618 7.9442C102.601 8.25977 102.843 8.52903 103.159 8.54564C103.638 8.57085 103.943 8.71454 104.135 8.90843C104.328 9.10315 104.472 9.41496 104.499 9.9038C104.516 10.2194 104.785 10.4614 105.101 10.4444C105.416 10.4274 105.658 10.1579 105.641 9.84235C105.604 9.15577 105.39 8.54876 104.948 8.10324C104.506 7.6569 103.903 7.43892 103.219 7.40293Z" fill="black"/>
<path fill-rule="evenodd" clip-rule="evenodd" d="M96.9717 0.61045C100.613 -0.203483 104.389 -0.203483 108.03 0.61045L108.418 0.697164C110.589 1.18233 112.302 2.84707 112.849 5.00276C113.773 8.64486 113.773 12.4602 112.849 16.1022C112.302 18.2579 110.589 19.9227 108.418 20.4078L108.03 20.4946C105.743 21.0058 103.403 21.1959 101.076 21.0649L98.0397 23.7813C97.8066 23.9899 97.4785 24.0551 97.1833 23.9516C96.8881 23.848 96.6727 23.5921 96.621 23.2834L96.1189 20.2839C94.1709 19.6786 92.6605 18.1015 92.1532 16.1022C91.2289 12.4602 91.2289 8.64487 92.1532 5.00277C92.7002 2.84707 94.4133 1.18233 96.5837 0.697164L96.9717 0.61045ZM107.656 2.28554C104.261 1.52673 100.741 1.52673 97.3461 2.28554L96.9582 2.37226C95.4193 2.71624 94.2047 3.89655 93.8169 5.42497C92.9629 8.78998 92.9629 12.315 93.8169 15.68C94.2047 17.2084 95.4193 18.3887 96.9582 18.7327L97.0607 18.7556C97.4015 18.8318 97.6622 19.107 97.7199 19.4516L98.0566 21.4631L100.199 19.5461C100.372 19.3912 100.6 19.3132 100.832 19.3296C103.113 19.491 105.412 19.321 107.656 18.8194L108.044 18.7327C109.583 18.3887 110.797 17.2084 111.185 15.6801C112.039 12.315 112.039 8.78998 111.185 5.42497C110.797 3.89655 109.583 2.71624 108.044 2.37226L107.656 2.28554Z" fill="black"/>
</g>
</g>
</svg>
