<svg width="1150" height="112" viewBox="0 0 1150 112" fill="none" xmlns="http://www.w3.org/2000/svg">
<path d="M0 10C0 4.47715 4.47715 0 10 0H1140C1145.52 0 1150 4.47715 1150 10V102C1150 107.523 1145.52 112 1140 112H10C4.47716 112 0 107.523 0 102V10Z" fill="#E3EBF1"/>
<path d="M507.909 97.6192C507.909 97.6192 507.84 97.6192 507.794 97.6192C505.471 97.6125 503.631 97.4244 503.7 97.1981L505.241 91.8378C505.31 91.6116 507.15 91.4279 509.565 91.4391C511.888 91.4458 513.728 91.634 513.659 91.8602L512.118 97.2205C512.049 97.4423 510.186 97.6192 507.909 97.6192Z" fill="white"/>
<path d="M374.44 53.7242C372.508 53.7242 370.76 53.5943 370.323 53.4016L366.298 51.5895C365.815 51.3677 367.241 51.1504 369.518 51.1034C371.795 51.0563 374.026 51.1952 374.509 51.417L378.534 53.2291C379.017 53.4509 377.591 53.6682 375.314 53.7152C375.015 53.7219 374.716 53.7242 374.417 53.7242H374.44Z" fill="white"/>
<path d="M227.079 102.773C225.354 102.773 223.721 102.668 223.123 102.5L216.752 100.755C215.97 100.542 217.12 100.307 219.305 100.231C221.49 100.155 223.905 100.267 224.687 100.48L231.058 102.225C231.84 102.437 230.69 102.673 228.505 102.749C228.045 102.764 227.562 102.773 227.102 102.773H227.079Z" fill="white"/>
<path d="M724.316 76.4221C723.879 76.4221 723.442 76.4153 723.005 76.4019L689.379 75.3222C687.171 75.2505 685.975 75.0198 686.711 74.8048C687.447 74.5898 689.816 74.4733 692.024 74.5449L725.65 75.6246C727.858 75.6963 729.054 75.927 728.318 76.1421C727.743 76.3146 726.087 76.4243 724.316 76.4243V76.4221Z" fill="white"/>
<path d="M1025.02 63.9587C1024.17 63.9587 1023.32 63.934 1022.58 63.8825L1007.61 62.8431C1005.72 62.711 1005.28 62.4556 1006.62 62.2719C1007.95 62.0883 1010.6 62.0435 1012.48 62.1756L1027.46 63.215C1029.34 63.3449 1029.78 63.6025 1028.44 63.7862C1027.62 63.8982 1026.33 63.9587 1025.02 63.9587Z" fill="white"/>
<path d="M850.517 2.50212C849.758 2.50212 848.999 2.48196 848.309 2.44164L826.896 1.1514C824.918 1.03268 824.32 0.779559 825.539 0.586919C826.758 0.394278 829.357 0.336039 831.335 0.454759L852.748 1.745C854.726 1.86372 855.324 2.11684 854.105 2.30948C853.3 2.43492 851.943 2.50436 850.517 2.50436V2.50212Z" fill="white"/>
<path d="M608.626 57.4515C607.085 57.4515 605.59 57.3686 604.854 57.2253C603.819 57.0237 604.67 56.7773 606.74 56.6765L622.679 55.9037C624.749 55.8029 627.279 55.8857 628.314 56.0873C629.349 56.2889 628.498 56.5353 626.428 56.6361L610.489 57.4089C609.891 57.4381 609.247 57.4515 608.626 57.4515Z" fill="white"/>
<path d="M152.053 61.4947C151.317 61.4947 150.558 61.4745 149.868 61.4342C147.89 61.3155 147.269 61.0646 148.465 60.872L170.936 57.2902C172.155 57.0976 174.731 57.0371 176.709 57.1536C178.687 57.2723 179.308 57.5232 178.112 57.7158L155.641 61.2976C154.859 61.423 153.456 61.4947 152.053 61.4947Z" fill="white"/>
<path d="M157.78 2.51328C155.595 2.51328 153.755 2.34752 153.594 2.13248C153.433 1.90624 155.181 1.71136 157.481 1.69568L220.593 1.25664C222.962 1.24544 224.917 1.4112 225.078 1.6352C225.239 1.86144 223.491 2.05632 221.191 2.072L158.079 2.51104C158.079 2.51104 157.872 2.51104 157.78 2.51104V2.51328Z" fill="white"/>
<path d="M1054.92 44.4572C1053.56 44.4572 1052.23 44.3945 1051.42 44.2758L1041.05 42.775C1039.76 42.5868 1040.27 42.3337 1042.2 42.206C1044.13 42.0806 1046.73 42.1299 1048.04 42.318L1058.41 43.8188C1059.7 44.007 1059.2 44.2601 1057.26 44.3878C1056.55 44.4348 1055.72 44.4572 1054.92 44.4572Z" fill="white"/>
<path d="M460.46 48.4892C459.333 48.4892 458.229 48.4467 457.401 48.3593C455.814 48.1958 455.883 47.936 457.585 47.7792L465.589 47.0444C467.268 46.8899 469.936 46.8966 471.546 47.0624C473.133 47.2259 473.064 47.4857 471.362 47.6425L463.358 48.3772C462.553 48.4512 461.518 48.4892 460.483 48.4892H460.46Z" fill="white"/>
<path d="M1047.7 25.1596C1047.37 25.1596 1047.03 25.1551 1046.71 25.1484C1044.45 25.0947 1043.05 24.8729 1043.6 24.6534L1046.94 23.3071C1047.49 23.0876 1049.77 22.951 1052.02 23.0047C1054.27 23.0585 1055.68 23.2803 1055.12 23.4998L1051.79 24.846C1051.33 25.0342 1049.6 25.1596 1047.7 25.1596Z" fill="white"/>
<path d="M277.15 75.2662C276.437 75.2662 275.724 75.2483 275.057 75.2125L263.925 74.592C261.901 74.48 261.211 74.2291 262.361 74.032C263.511 73.8349 266.087 73.7677 268.111 73.8797L279.243 74.5001C281.267 74.6121 281.957 74.863 280.807 75.0601C280.025 75.1923 278.622 75.2662 277.15 75.2662Z" fill="white"/>
<path d="M1127.23 52.1673C1127.05 52.1673 1126.88 52.1673 1126.7 52.1651L1115.57 52.0307C1113.27 52.0038 1111.61 51.7977 1111.91 51.5737C1112.19 51.3497 1114.33 51.1907 1116.6 51.2176L1127.74 51.352C1130.04 51.3788 1131.69 51.5849 1131.39 51.8089C1131.14 52.0172 1129.32 52.1696 1127.23 52.1696V52.1673Z" fill="white"/>
<path d="M929.683 57.8099C928.878 57.8099 928.073 57.7875 927.337 57.7404L893.504 55.5296C891.572 55.4041 891.066 55.1488 892.354 54.9606C893.642 54.7724 896.264 54.7232 898.196 54.8486L932.029 57.0572C933.961 57.1827 934.467 57.438 933.179 57.6262C932.374 57.7449 931.04 57.8076 929.683 57.8076V57.8099Z" fill="white"/>
<path d="M535.762 3.11355C534.244 3.11355 532.772 3.03291 532.013 2.89179C530.955 2.69019 531.76 2.44379 533.807 2.33851L562.005 0.916108C564.075 0.813068 566.605 0.891468 567.686 1.09083C568.744 1.29243 567.939 1.53883 565.892 1.64411L537.694 3.06651C537.073 3.09787 536.406 3.11131 535.762 3.11131V3.11355Z" fill="white"/>
<path d="M798.537 42.6249C798.008 42.6249 797.456 42.6137 796.927 42.5936L773.145 41.6281C771.006 41.5408 769.994 41.3011 770.868 41.0928C771.765 40.8845 774.226 40.7859 776.365 40.871L800.147 41.8365C802.286 41.9238 803.298 42.1635 802.424 42.3718C801.757 42.5286 800.193 42.6249 798.537 42.6249Z" fill="white"/>
<path d="M470.534 6.46907C469.016 6.46907 467.544 6.38843 466.808 6.24955L442.382 1.70011C441.301 1.50075 442.106 1.25211 444.153 1.14683C446.223 1.04155 448.753 1.11995 449.834 1.31931L474.26 5.86875C475.341 6.06811 474.536 6.31675 472.489 6.42203C471.868 6.45339 471.201 6.46907 470.534 6.46907Z" fill="white"/>
<path d="M535.946 53.6234C533.715 53.6234 531.852 53.4509 531.737 53.2314L531.047 51.7283C530.955 51.5021 532.749 51.3117 535.072 51.3005C537.372 51.2938 539.35 51.4662 539.465 51.6925L540.155 53.1955C540.247 53.4218 538.453 53.6122 536.13 53.6234C536.061 53.6234 536.015 53.6234 535.946 53.6234Z" fill="white"/>
<path d="M917.01 3.19871C916.32 3.19871 915.63 3.18303 914.986 3.14719C912.962 3.03743 912.203 2.78879 913.33 2.59167L921.38 1.16703C922.507 0.969914 925.06 0.898234 927.084 1.00575C929.108 1.11551 929.867 1.36415 928.74 1.56127L920.69 2.98591C919.931 3.12255 918.482 3.19871 917.01 3.19871Z" fill="white"/>
<path d="M1035.02 102.213C1032.95 102.213 1031.14 102.063 1030.86 101.859L1026.54 98.7503C1026.21 98.5263 1027.85 98.3203 1030.15 98.2889C1032.45 98.2553 1034.56 98.4143 1034.89 98.6406L1039.23 101.75C1039.55 101.974 1037.92 102.18 1035.62 102.211C1035.44 102.213 1035.23 102.216 1035.05 102.216L1035.02 102.213Z" fill="white"/>
<path d="M861.764 89.1722C859.878 89.1722 858.176 89.049 857.693 88.863L853.139 87.1293C852.564 86.9098 853.921 86.688 856.175 86.632C858.429 86.576 860.706 86.7082 861.281 86.9277L865.835 88.6614C866.41 88.881 865.053 89.1027 862.799 89.1587C862.454 89.1677 862.109 89.1722 861.764 89.1722Z" fill="white"/>
<path d="M317.331 95.2269C316.48 95.2269 315.606 95.2023 314.847 95.1485C312.961 95.0164 312.57 94.7588 313.927 94.5773L351.555 89.5553C352.912 89.3716 355.557 89.3313 357.42 89.4657C359.306 89.5978 359.697 89.8554 358.34 90.0369L320.712 95.0589C319.884 95.1687 318.619 95.2269 317.308 95.2269H317.331Z" fill="white"/>
<path d="M999.005 5.45212C998.775 5.45212 998.522 5.45212 998.292 5.4454C995.992 5.40732 994.474 5.19452 994.865 4.97276L1000.55 1.76956C1000.94 1.5478 1003.1 1.39548 1005.4 1.4358C1007.7 1.47388 1009.22 1.68668 1008.83 1.90844L1003.15 5.11164C1002.8 5.311 1001.01 5.45212 999.005 5.45212Z" fill="white"/>
<path d="M1039.94 14.8983C1037.94 14.8983 1036.17 14.7594 1035.8 14.5623L1032.31 12.6829C1031.89 12.4612 1033.41 12.2484 1035.69 12.208C1037.97 12.1677 1040.15 12.3156 1040.57 12.5373L1044.06 14.4167C1044.48 14.6384 1042.96 14.8512 1040.68 14.8916C1040.43 14.896 1040.17 14.8983 1039.92 14.8983H1039.94Z" fill="white"/>
<path d="M314.479 106.472C312.432 106.472 310.661 106.328 310.339 106.125L301.622 100.675C301.254 100.451 302.841 100.242 305.141 100.206C307.418 100.173 309.58 100.325 309.948 100.549L318.665 105.999C319.033 106.223 317.446 106.431 315.146 106.467C314.916 106.469 314.709 106.472 314.502 106.472H314.479Z" fill="white"/>
<path d="M17.917 84.6295C17.227 84.6295 16.537 84.6138 15.893 84.578C13.869 84.4682 13.11 84.2196 14.237 84.0224L21.62 82.721C22.747 82.5239 25.3 82.45 27.324 82.5597C29.348 82.6695 30.107 82.9181 28.98 83.1152L21.597 84.4167C20.838 84.5511 19.389 84.6295 17.917 84.6295Z" fill="white"/>
<path d="M1103.68 79.7619C1101.65 79.7619 1099.86 79.6185 1099.54 79.4192L1093.72 75.9516C1093.35 75.7276 1094.89 75.5171 1097.19 75.4812C1099.49 75.4454 1101.65 75.5955 1102.02 75.8195L1107.84 79.287C1108.21 79.511 1106.67 79.7216 1104.37 79.7574C1104.14 79.7619 1103.91 79.7619 1103.68 79.7619Z" fill="white"/>
<path d="M685.722 41.3997C684.388 41.3997 683.077 41.3392 682.272 41.2249C680.938 41.039 681.421 40.7837 683.307 40.6538L693.864 39.9369C695.773 39.807 698.395 39.8541 699.729 40.0378C701.063 40.2237 700.58 40.479 698.694 40.6089L688.137 41.3258C687.401 41.375 686.573 41.3997 685.745 41.3997H685.722Z" fill="white"/>
<path d="M598.897 11.1059C597.425 11.1059 595.999 11.0297 595.217 10.8976L588.731 9.7731C587.604 9.57598 588.317 9.32734 590.341 9.21534C592.365 9.10558 594.941 9.17502 596.068 9.37214L602.554 10.4966C603.681 10.6937 602.968 10.9424 600.944 11.0544C600.3 11.0902 599.587 11.1059 598.897 11.1059Z" fill="white"/>
<path d="M388.884 43.754C388.125 43.754 387.366 43.7338 386.676 43.6935C384.698 43.5748 384.1 43.3216 385.319 43.129L403.512 40.264C404.731 40.0714 407.33 40.0132 409.308 40.1319C411.286 40.2506 411.884 40.5037 410.665 40.6964L392.472 43.5613C391.667 43.6868 390.31 43.7562 388.884 43.7562V43.754Z" fill="white"/>
<path d="M936.767 103.002C934.835 103.002 933.087 102.872 932.673 102.679C932.167 102.458 933.616 102.24 935.87 102.191L952.844 101.828C955.098 101.779 957.352 101.92 957.858 102.14C958.364 102.361 956.915 102.579 954.661 102.628L937.687 102.991C937.388 102.997 937.089 103 936.79 103L936.767 103.002Z" fill="white"/>
<path d="M462.392 57.3575C461.61 57.3575 460.828 57.3373 460.138 57.2925L444.59 56.3293C442.635 56.2083 442.06 55.9552 443.302 55.7648C444.544 55.5744 447.143 55.5184 449.098 55.6394L464.646 56.6026C466.601 56.7235 467.176 56.9767 465.934 57.1671C465.129 57.2903 463.772 57.3575 462.392 57.3575Z" fill="white"/>
<path d="M548.964 84.1008C547.124 84.1008 545.422 83.9821 544.916 83.7984C544.295 83.5812 545.629 83.3549 547.86 83.2944L588.179 82.217C590.41 82.1565 592.733 82.2864 593.354 82.5037C593.975 82.721 592.641 82.9472 590.41 83.0077L550.091 84.0852C549.723 84.0941 549.332 84.1008 548.964 84.1008Z" fill="white"/>
<path d="M28.704 46.4106C28.29 46.4106 27.876 46.4039 27.462 46.3927L15.295 46.0298C13.064 45.9649 11.822 45.7341 12.512 45.5191C13.202 45.3018 15.548 45.1809 17.756 45.2481L29.923 45.6109C32.154 45.6759 33.396 45.9066 32.706 46.1217C32.154 46.2986 30.475 46.4106 28.681 46.4106H28.704Z" fill="white"/>
<path d="M546.227 66.2234C544.571 66.2234 543.007 66.1271 542.34 65.9703L527.643 62.505C526.746 62.2967 527.781 62.057 529.92 61.9696C532.082 61.8823 534.52 61.9831 535.417 62.1914L550.114 65.6567C551.011 65.865 549.976 66.1047 547.837 66.192C547.308 66.2122 546.756 66.2234 546.227 66.2234Z" fill="white"/>
<path d="M957.743 43.8233C956.294 43.8233 954.891 43.7494 954.109 43.6195C952.936 43.4246 953.626 43.1737 955.627 43.0595L965.287 42.5129C967.288 42.3987 969.864 42.4659 971.037 42.6607C972.21 42.8556 971.52 43.1065 969.519 43.2207L959.859 43.7673C959.192 43.8054 958.479 43.8233 957.743 43.8233Z" fill="white"/>
<path d="M852.932 11.1462C851.506 11.1462 850.126 11.0768 849.321 10.9491L835.452 8.71804C834.256 8.5254 834.877 8.27228 836.878 8.1558C838.856 8.03932 841.455 8.0998 842.651 8.29468L856.52 10.5257C857.716 10.7184 857.095 10.9715 855.094 11.088C854.404 11.1283 853.668 11.1462 852.909 11.1462H852.932Z" fill="white"/>
<path d="M12.282 63.2307C12.121 63.2307 11.983 63.2307 11.822 63.2284C9.522 63.2038 7.843 63.0022 8.096 62.7782L9.384 61.6022C9.637 61.3782 11.707 61.2124 14.007 61.2393C16.307 61.264 17.986 61.4655 17.733 61.6895L16.445 62.8655C16.215 63.0761 14.398 63.2307 12.259 63.2307H12.282Z" fill="white"/>
<path d="M1104.97 94.1606C1102.9 94.1606 1101.08 94.0105 1100.8 93.8045C1100.5 93.5805 1102.11 93.3744 1104.41 93.3453L1137.79 92.9174C1140.06 92.8883 1142.2 93.0451 1142.5 93.2691C1142.8 93.4931 1141.19 93.6992 1138.89 93.7283L1105.52 94.1561C1105.33 94.1584 1105.15 94.1606 1104.97 94.1606Z" fill="white"/>
<path d="M296.493 56.9094C295.711 56.9094 294.906 56.887 294.193 56.8422L259.049 54.6156C257.094 54.4924 256.542 54.2393 257.807 54.0489C259.072 53.8585 261.671 53.8048 263.626 53.928L298.77 56.1545C300.725 56.2777 301.277 56.5308 300.012 56.7212C299.207 56.8422 297.85 56.9072 296.47 56.9072L296.493 56.9094Z" fill="white"/>
<path d="M125.695 31.3398C125.189 31.3398 124.66 31.3308 124.131 31.3107L83.421 29.7292C81.259 29.6464 80.201 29.4067 81.075 29.1961C81.926 28.9856 84.387 28.8825 86.549 28.9676L127.259 30.5491C129.421 30.632 130.479 30.8716 129.605 31.0822C128.961 31.2435 127.374 31.3398 125.695 31.3398Z" fill="white"/>
<path d="M21.597 38.2838C21.39 38.2838 21.183 38.2838 20.976 38.2793C18.676 38.2457 17.089 38.0374 17.434 37.8157L19.734 36.279C20.079 36.055 22.195 35.8982 24.495 35.9341C26.795 35.9677 28.382 36.176 28.037 36.3977L25.737 37.9344C25.438 38.1382 23.644 38.2838 21.574 38.2838H21.597Z" fill="white"/>
<path d="M228.229 108.833C227.861 108.833 227.493 108.828 227.102 108.817L203.596 108.19C201.365 108.129 200.031 107.905 200.652 107.686C201.273 107.468 203.573 107.339 205.827 107.399L229.333 108.026C231.564 108.087 232.898 108.311 232.277 108.53C231.771 108.712 230.069 108.833 228.229 108.833Z" fill="white"/>
<path d="M1115.32 110.237C1113.82 110.237 1112.37 110.159 1111.61 110.022L1105.36 108.889C1104.25 108.689 1105.03 108.441 1107.06 108.333C1109.11 108.226 1111.66 108.302 1112.76 108.499L1119.02 109.632C1120.12 109.832 1119.34 110.08 1117.32 110.188C1116.67 110.221 1116.01 110.237 1115.34 110.237H1115.32Z" fill="white"/>
<path d="M744.74 61.3782C743.728 61.3782 742.693 61.3423 741.888 61.2707L710.309 58.4438C708.607 58.2915 708.492 58.0316 710.056 57.8659C711.62 57.7001 714.288 57.6889 715.99 57.8412L747.569 60.6681C749.271 60.8204 749.386 61.0803 747.822 61.246C746.994 61.3334 745.867 61.3782 744.717 61.3782H744.74Z" fill="white"/>
<path d="M298.701 84.6921C298.494 84.6921 298.287 84.6921 298.057 84.6876C295.757 84.654 294.17 84.4457 294.515 84.2217L297.712 82.1654C298.057 81.9414 300.196 81.7868 302.496 81.8227C304.796 81.8563 306.383 82.0646 306.038 82.2886L302.841 84.3449C302.519 84.5488 300.725 84.6944 298.678 84.6944L298.701 84.6921Z" fill="white"/>
<path d="M906.913 77.0806C904.889 77.0806 903.095 76.9372 902.773 76.7356C902.405 76.5116 903.969 76.3033 906.269 76.2675L917.723 76.0905C920.023 76.0569 922.162 76.207 922.53 76.431C922.898 76.655 921.334 76.8633 919.034 76.8991L907.58 77.0761C907.35 77.0806 907.143 77.0806 906.913 77.0806Z" fill="white"/>
<path d="M81.949 66.2256C81.006 66.2256 80.063 66.1942 79.281 66.1315C77.487 65.9881 77.234 65.7305 78.706 65.5558L87.768 64.4806C89.24 64.3059 91.885 64.2813 93.679 64.4246C95.473 64.568 95.726 64.8256 94.254 65.0003L85.192 66.0755C84.364 66.1741 83.145 66.2256 81.949 66.2256Z" fill="white"/>
<path d="M1119.02 28.513C1118.88 28.513 1118.72 28.513 1118.58 28.513L1104.97 28.3719C1102.67 28.3472 1100.99 28.1456 1101.22 27.9216C1101.47 27.6976 1103.49 27.5341 1105.84 27.5565L1119.46 27.6976C1121.76 27.7223 1123.43 27.9239 1123.2 28.1479C1122.97 28.3584 1121.16 28.5152 1119.02 28.5152V28.513Z" fill="white"/>
<path d="M758.655 3.31968C757.114 3.31968 755.619 3.2368 754.883 3.0912L746.672 1.4784C745.637 1.2768 746.488 1.0304 748.581 0.929603C750.674 0.828803 753.181 0.911683 754.216 1.11552L762.427 2.72832C763.462 2.92992 762.611 3.17632 760.518 3.27712C759.92 3.30624 759.276 3.31968 758.655 3.31968Z" fill="white"/>
<path d="M158.194 22.4381C157.78 22.4381 157.366 22.4313 156.975 22.4201L110.354 21.0336C108.123 20.9664 106.881 20.7379 107.548 20.5229C108.238 20.3056 110.584 20.1846 112.792 20.2496L159.413 21.6361C161.644 21.7033 162.886 21.9318 162.219 22.1469C161.667 22.3238 159.988 22.4381 158.194 22.4381Z" fill="white"/>
<path d="M1103.82 40.6919C1103.38 40.6919 1102.92 40.6851 1102.48 40.6695C1100.27 40.5978 1099.1 40.3648 1099.84 40.1498L1109.43 37.3632C1110.16 37.1482 1112.56 37.0339 1114.76 37.1056C1116.97 37.1773 1118.14 37.4103 1117.41 37.6253L1107.82 40.4119C1107.22 40.5843 1105.59 40.6919 1103.84 40.6919H1103.82Z" fill="white"/>
<path d="M1049.14 111.604C1048.36 111.604 1047.58 111.583 1046.89 111.539C1044.94 111.418 1044.36 111.165 1045.6 110.974L1059.49 108.848C1060.74 108.658 1063.34 108.6 1065.29 108.723C1067.25 108.844 1067.82 109.097 1066.58 109.287L1052.69 111.413C1051.88 111.536 1050.52 111.604 1049.14 111.604Z" fill="white"/>
<path d="M608.419 91.9094C607.246 91.9094 606.05 91.8601 605.222 91.7661L588.409 89.8598C586.891 89.6873 587.098 89.4297 588.846 89.2819C590.617 89.1341 593.262 89.1542 594.78 89.3245L611.593 91.2307C613.111 91.4032 612.904 91.6608 611.156 91.8086C610.351 91.8758 609.385 91.9072 608.419 91.9072V91.9094Z" fill="white"/>
<path d="M33.718 54.2438C31.625 54.2438 29.808 54.0915 29.555 53.8832C29.279 53.6592 30.912 53.4553 33.212 53.4262L85.79 52.8035C88.067 52.7766 90.183 52.9357 90.482 53.1597C90.758 53.3837 89.125 53.5875 86.825 53.6166L34.247 54.2393C34.086 54.2393 33.902 54.2416 33.741 54.2416L33.718 54.2438Z" fill="white"/>
<path d="M815.902 34.4848C813.924 34.4848 812.153 34.3482 811.762 34.151L805.552 30.9008C805.115 30.679 806.633 30.464 808.91 30.4237C811.187 30.3811 813.395 30.529 813.809 30.7507L820.019 34.001C820.456 34.2227 818.938 34.4378 816.661 34.4781C816.408 34.4826 816.132 34.4848 815.879 34.4848H815.902Z" fill="white"/>
<path d="M379.063 75.2819C378.074 75.2819 377.085 75.2483 376.303 75.1811L346.334 72.6252C344.586 72.4751 344.402 72.2175 345.943 72.0473C347.484 71.8771 350.129 71.8591 351.877 72.0092L381.846 74.5651C383.594 74.7151 383.778 74.9727 382.237 75.143C381.409 75.2348 380.236 75.2819 379.063 75.2819Z" fill="white"/>
<path d="M854.427 99.5882C853.852 99.5882 853.277 99.577 852.702 99.5524C850.586 99.4605 849.643 99.2164 850.586 99.0103L865.053 95.872C865.996 95.666 868.48 95.5719 870.619 95.666C872.735 95.7578 873.678 96.002 872.735 96.208L858.268 99.3463C857.578 99.4986 856.037 99.5882 854.427 99.5882Z" fill="white"/>
<path d="M670.381 22.7898C668.564 22.7898 666.885 22.6733 666.333 22.4941L650.279 17.0867C649.635 16.8694 650.923 16.6432 653.154 16.5805C655.385 16.5178 657.708 16.6432 658.352 16.8605L674.406 22.2678C675.05 22.4851 673.762 22.7114 671.531 22.7741C671.14 22.7853 670.749 22.7898 670.358 22.7898H670.381Z" fill="white"/>
<path d="M272.435 67.0992C271.147 67.0992 269.882 67.0432 269.054 66.9356L243.961 63.6697C242.581 63.4883 242.949 63.2329 244.812 63.0963C246.675 62.9596 249.32 62.9977 250.7 63.1792L275.793 66.4451C277.173 66.6265 276.805 66.8819 274.942 67.0185C274.183 67.0745 273.309 67.0992 272.435 67.0992Z" fill="white"/>
<path d="M16.399 29.4157C14.145 29.4157 12.282 29.2432 12.19 29.0237L10.534 25.0253C10.442 24.799 12.236 24.6086 14.559 24.5997C16.813 24.593 18.837 24.7654 18.929 24.9917L20.608 28.9901C20.7 29.2163 18.906 29.4067 16.583 29.4157C16.514 29.4157 16.468 29.4157 16.422 29.4157H16.399Z" fill="white"/>
<path d="M760.173 69.6282C759.161 69.6282 758.149 69.5923 757.344 69.5207C755.619 69.3683 755.504 69.1085 757.068 68.9427L766.613 67.9235C768.177 67.7555 770.845 67.7443 772.547 67.8967C774.272 68.049 774.387 68.3088 772.823 68.4746L763.278 69.4938C762.45 69.5834 761.3 69.6282 760.173 69.6282Z" fill="white"/>
<path d="M700.074 51.6903C699.614 51.6903 699.154 51.6835 698.694 51.6679C696.509 51.5939 695.336 51.3587 696.118 51.1459L709.366 47.4611C710.125 47.2483 712.517 47.1363 714.725 47.2103C716.91 47.2842 718.083 47.5194 717.301 47.7322L704.053 51.417C703.455 51.585 701.822 51.6925 700.074 51.6925V51.6903Z" fill="white"/>
<path d="M958.686 68.721C958.157 68.721 957.628 68.712 957.099 68.6919L907.626 66.7363C905.464 66.6512 904.429 66.4115 905.303 66.2032C906.177 65.9927 908.615 65.8919 910.777 65.977L960.25 67.9325C962.412 68.0176 963.447 68.2573 962.573 68.4656C961.906 68.6247 960.342 68.721 958.663 68.721H958.686Z" fill="white"/>
<path d="M878.715 47.4275C876.645 47.4275 874.851 47.2774 874.552 47.0736L870.734 44.343C870.412 44.119 872.022 43.9129 874.345 43.8816C876.622 43.8502 878.761 44.007 879.083 44.2332L882.901 46.9638C883.223 47.1878 881.613 47.3939 879.29 47.4252C879.106 47.4275 878.899 47.4297 878.715 47.4297V47.4275Z" fill="white"/>
<path d="M232.76 34.2473C232.185 34.2473 231.61 34.2361 231.035 34.2115L187.933 32.3321C185.817 32.2403 184.874 31.9983 185.817 31.79C186.76 31.5839 189.267 31.4921 191.383 31.584L234.485 33.4633C236.601 33.5551 237.544 33.7971 236.601 34.0054C235.911 34.1577 234.37 34.2473 232.76 34.2473Z" fill="white"/>
<path d="M486.22 80.4743C485.944 80.4743 485.668 80.472 485.392 80.4653C483.115 80.4205 481.643 80.2055 482.103 79.9837L492.246 75.0938C492.706 74.872 494.914 74.7287 497.191 74.7735C499.468 74.8183 500.94 75.0333 500.48 75.2551L490.337 80.145C489.923 80.3399 488.175 80.4743 486.22 80.4743Z" fill="white"/>
<path d="M504.39 13.8701C502.688 13.8701 501.078 13.7671 500.434 13.6013C499.629 13.3885 500.756 13.1533 502.941 13.0749L521.755 12.4029C523.94 12.3245 526.355 12.4343 527.16 12.6471C527.965 12.8599 526.838 13.0951 524.653 13.1735L505.839 13.8455C505.356 13.8634 504.873 13.8701 504.39 13.8701Z" fill="white"/>
<path d="M502.941 40.4724C500.641 40.4724 498.755 40.2909 498.732 40.0669C498.732 39.8407 500.572 39.6548 502.895 39.6548L549.723 39.6167C552.207 39.6055 553.955 39.7959 553.955 40.0221C553.955 40.2484 552.115 40.4343 549.792 40.4343L502.964 40.4724H502.918H502.941Z" fill="white"/>
<path d="M999.718 78.3484C999.327 78.3484 998.936 78.344 998.545 78.3328C996.314 78.27 995.026 78.0416 995.67 77.8243L1012.02 72.3318C1012.67 72.1145 1015.01 71.9891 1017.24 72.0518C1019.47 72.1145 1020.76 72.343 1020.12 72.5603L1003.77 78.0528C1003.24 78.232 1001.56 78.3484 999.718 78.3484Z" fill="white"/>
<path d="M942.379 94.3958C940.7 94.3958 939.113 94.2973 938.469 94.136C937.618 93.9254 938.676 93.688 940.838 93.6051L968.3 92.5523C970.462 92.4694 972.9 92.5725 973.751 92.783C974.602 92.9936 973.544 93.231 971.382 93.3139L943.92 94.3667C943.414 94.3869 942.885 94.3958 942.379 94.3958Z" fill="white"/>
<path d="M768.453 25.2851C767.096 25.2851 765.785 25.2224 764.957 25.1059L756.723 23.921C755.412 23.7328 755.918 23.4797 757.85 23.352C759.782 23.2243 762.381 23.2736 763.692 23.4618L771.926 24.6467C773.237 24.8349 772.731 25.088 770.799 25.2157C770.086 25.2627 769.258 25.2851 768.453 25.2851Z" fill="white"/>
<path d="M447.672 34.0749C446.2 34.0749 444.774 34.001 444.015 33.8666L420.302 29.7696C419.152 29.5725 419.888 29.3217 421.889 29.2119C423.913 29.0999 426.466 29.1716 427.616 29.3665L451.329 33.4634C452.479 33.6605 451.743 33.9114 449.742 34.0212C449.098 34.057 448.385 34.0749 447.672 34.0749Z" fill="white"/>
<path d="M668.794 67.5875C667.736 67.5875 666.678 67.5494 665.873 67.4733L639.216 64.9622C637.537 64.8054 637.514 64.5456 639.124 64.3821C640.734 64.2186 643.402 64.2141 645.081 64.3731L671.738 66.8842C673.417 67.041 673.44 67.3008 671.83 67.4643C671.002 67.5472 669.898 67.5898 668.817 67.5898L668.794 67.5875Z" fill="white"/>
<path d="M779.424 83.0748C778.228 83.0748 777.032 83.0256 776.204 82.927C774.709 82.7523 774.962 82.4947 776.733 82.3491L814.453 79.2803C816.224 79.1347 818.892 79.1593 820.387 79.3318C821.882 79.5065 821.629 79.7641 819.858 79.9097L782.138 82.9785C781.356 83.0435 780.39 83.0748 779.447 83.0748H779.424Z" fill="white"/>
<path d="M242.949 93.4775C242.696 93.4775 242.443 93.4775 242.167 93.4707L224.066 93.1392C221.789 93.0967 220.271 92.8839 220.708 92.6621C221.145 92.4404 223.353 92.2925 225.607 92.3351L243.708 92.6666C245.985 92.7091 247.503 92.9219 247.066 93.1437C246.675 93.3408 244.927 93.4775 242.926 93.4775H242.949Z" fill="white"/>
<path d="M445.211 103.118C444.544 103.118 443.854 103.103 443.21 103.069L391.506 100.339C389.459 100.231 388.7 99.9823 389.804 99.783C390.908 99.5836 393.461 99.5097 395.508 99.6172L447.212 102.348C449.259 102.455 450.018 102.704 448.914 102.903C448.155 103.04 446.706 103.118 445.211 103.118Z" fill="white"/>
<path d="M725.282 33.432C724.339 33.432 723.373 33.4006 722.591 33.3379L697.291 31.2861C695.497 31.1405 695.267 30.8829 696.739 30.7082C698.234 30.5334 700.879 30.5111 702.673 30.6544L727.973 32.7062C729.767 32.8518 729.997 33.1094 728.525 33.2842C727.697 33.3805 726.501 33.432 725.282 33.432Z" fill="white"/>
<path d="M226.366 16.7014C224.204 16.7014 222.387 16.5424 222.18 16.3296L216.338 10.1674C216.131 9.94113 217.833 9.74177 220.133 9.72161C222.456 9.69921 224.503 9.86721 224.71 10.0912L230.552 16.2534C230.759 16.4797 229.057 16.679 226.757 16.6992C226.619 16.6992 226.504 16.6992 226.366 16.6992V16.7014Z" fill="white"/>
<path d="M595.424 99.6912C595.01 99.6912 594.573 99.6845 594.159 99.6711L584.016 99.3552C581.808 99.2858 580.589 99.0573 581.279 98.84C581.992 98.625 584.361 98.5063 586.569 98.5735L596.712 98.8871C598.92 98.9565 600.139 99.185 599.449 99.4023C598.874 99.577 597.218 99.689 595.447 99.689L595.424 99.6912Z" fill="white"/>
<path d="M535.44 31.7497C534.451 31.7497 533.439 31.7161 532.634 31.6445L523.963 30.8873C522.238 30.735 522.1 30.4774 523.641 30.3094C525.182 30.1414 527.85 30.1257 529.575 30.2781L538.246 31.0352C539.971 31.1875 540.109 31.4451 538.568 31.6131C537.74 31.7027 536.59 31.7497 535.44 31.7497Z" fill="white"/>
<path d="M841.363 62.888C840.006 62.888 838.695 62.8252 837.867 62.7065L822.48 60.4844C821.192 60.2963 821.698 60.0432 823.607 59.9155C825.539 59.79 828.138 59.8393 829.449 60.0252L844.836 62.2473C846.124 62.4355 845.618 62.6886 843.709 62.8163C842.996 62.8633 842.168 62.8857 841.363 62.8857V62.888Z" fill="white"/>
<path d="M1106.21 18.097C1106.21 18.097 1106.05 18.097 1105.96 18.097C1103.63 18.0835 1101.86 17.8909 1102 17.6647L1105.36 12.0871C1105.49 11.8608 1107.52 11.6861 1109.8 11.7018C1112.12 11.7152 1113.89 11.9079 1113.75 12.1341L1110.39 17.7117C1110.26 17.929 1108.42 18.097 1106.21 18.097Z" fill="white"/>
<path d="M675.027 9.0697C673.003 9.0697 671.209 8.92634 670.887 8.72698C670.519 8.50298 672.06 8.29242 674.36 8.25658L710.424 7.68314C712.701 7.6473 714.886 7.79738 715.254 8.02138C715.622 8.24538 714.081 8.45594 711.781 8.49178L675.717 9.06522C675.487 9.0697 675.257 9.0697 675.027 9.0697Z" fill="white"/>
<path d="M784.323 92.8592C783.702 92.8592 783.081 92.8458 782.483 92.8167L741.014 90.8365C738.921 90.738 738.07 90.4916 739.082 90.2877C740.094 90.0839 742.624 90.001 744.717 90.0996L786.186 92.0797C788.279 92.1783 789.13 92.4247 788.118 92.6285C787.382 92.7741 785.887 92.857 784.346 92.857L784.323 92.8592Z" fill="white"/>
<path d="M617.619 48.3908C616.446 48.3908 615.273 48.3437 614.445 48.2496L591.514 45.6804C589.996 45.5101 590.18 45.2503 591.928 45.1024C593.676 44.9546 596.344 44.9725 597.862 45.1428L620.793 47.712C622.311 47.8823 622.127 48.1421 620.379 48.29C619.574 48.3572 618.608 48.3908 617.619 48.3908Z" fill="white"/>
<path d="M842.49 72.3879C842.145 72.3879 841.8 72.3834 841.455 72.3744C839.201 72.3184 837.844 72.0967 838.419 71.8772L841.8 70.5847C842.375 70.3651 844.652 70.2308 846.906 70.289C849.16 70.345 850.517 70.5668 849.942 70.7863L846.561 72.0788C846.078 72.2647 844.376 72.3879 842.49 72.3879Z" fill="white"/>
<path d="M218.5 85.7292C216.568 85.7292 214.82 85.5993 214.406 85.4067L201.641 79.7708C201.135 79.5491 202.584 79.3318 204.838 79.2825C207.092 79.2332 209.346 79.3744 209.852 79.5939L222.617 85.2297C223.123 85.4515 221.674 85.6688 219.42 85.7181C219.121 85.7248 218.799 85.727 218.5 85.727V85.7292Z" fill="white"/>
<path d="M527.873 108.013C526.769 108.013 525.642 107.97 524.814 107.885C523.227 107.722 523.296 107.462 524.975 107.305L549.539 105.042C551.218 104.888 553.886 104.895 555.496 105.058C557.083 105.222 557.014 105.482 555.335 105.638L530.771 107.901C529.966 107.975 528.908 108.013 527.873 108.013Z" fill="white"/>
<path d="M197.892 50.2746C196.765 50.2746 195.661 50.232 194.833 50.1447L162.702 46.8048C161.115 46.6391 161.207 46.3815 162.886 46.2247C164.588 46.0701 167.256 46.0791 168.843 46.2426L200.974 49.5824C202.561 49.7482 202.469 50.0058 200.79 50.1626C199.985 50.2365 198.95 50.2723 197.915 50.2723L197.892 50.2746Z" fill="white"/>
<path d="M952.43 84.7324C952.315 84.7324 952.2 84.7324 952.085 84.7324L920.966 84.4771C918.643 84.4592 916.941 84.2598 917.125 84.0336C917.309 83.8073 919.333 83.6393 921.679 83.6595L952.798 83.9148C955.121 83.9328 956.823 84.1321 956.639 84.3584C956.455 84.5712 954.615 84.7347 952.453 84.7347L952.43 84.7324Z" fill="white"/>
<path d="M977.891 52.1471C976.051 52.1471 974.349 52.0284 973.843 51.8447C973.222 51.6252 974.556 51.4012 976.787 51.3407L1007.33 50.5299C1009.59 50.4694 1011.89 50.5993 1012.51 50.8166C1013.13 51.0361 1011.79 51.2601 1009.56 51.3206L979.018 52.1315C978.65 52.1404 978.282 52.1471 977.914 52.1471H977.891Z" fill="white"/>
<path d="M977.247 108.647C975.752 108.647 974.28 108.568 973.521 108.429C972.44 108.23 973.199 107.981 975.269 107.876L989.989 107.112C992.036 107.005 994.589 107.083 995.67 107.283C996.751 107.482 995.992 107.731 993.922 107.836L979.202 108.6C978.581 108.633 977.891 108.647 977.224 108.647H977.247Z" fill="white"/>
<path d="M1048.02 35.5578C1047.42 35.5578 1046.8 35.5443 1046.22 35.5175L987.022 32.7712C984.929 32.6749 984.032 32.4285 985.021 32.2247C986.01 32.0208 988.54 31.9335 990.633 32.0298L1049.84 34.776C1051.93 34.8723 1052.83 35.1187 1051.84 35.3226C1051.12 35.4704 1049.61 35.5555 1048.04 35.5555L1048.02 35.5578Z" fill="white"/>
<path d="M764.474 102.852C763.577 102.852 762.68 102.825 761.921 102.769C760.081 102.632 759.713 102.375 761.116 102.196L776.687 100.204C778.09 100.025 780.735 99.9892 782.575 100.126C784.415 100.262 784.783 100.52 783.38 100.699L767.809 102.691C766.981 102.796 765.739 102.852 764.451 102.852H764.474Z" fill="white"/>
<path d="M963.125 24.2548C962.987 24.2548 962.872 24.2548 962.734 24.2548C960.411 24.2346 958.709 24.0353 958.939 23.809L961.561 21.0381C961.768 20.8119 963.838 20.6461 966.138 20.6685C968.461 20.6887 970.163 20.8881 969.933 21.1143L967.311 23.8852C967.104 24.098 965.287 24.257 963.125 24.257V24.2548Z" fill="white"/>
<path d="M875.449 23.408C874.253 23.408 873.057 23.3587 872.229 23.2624L838.833 19.3894C837.338 19.2169 837.568 18.9571 839.339 18.8115C841.11 18.6659 843.778 18.6883 845.273 18.8608L878.669 22.7337C880.164 22.9062 879.934 23.166 878.163 23.3116C877.381 23.3766 876.415 23.408 875.449 23.408Z" fill="white"/>
<path d="M96.002 41.7223C94.53 41.7223 93.081 41.6461 92.322 41.5117C91.195 41.3146 91.931 41.0637 93.955 40.954L128.432 39.0903C130.456 38.9805 133.032 39.0522 134.159 39.2493C135.286 39.4464 134.55 39.6973 132.526 39.8071L98.049 41.6708C97.405 41.7066 96.692 41.7223 96.002 41.7223Z" fill="white"/>
<path d="M366.919 3.52129C364.895 3.52129 363.124 3.38017 362.779 3.17857L359.007 0.967694C358.616 0.743694 360.18 0.533134 362.457 0.497294C364.734 0.459214 366.919 0.611534 367.287 0.833294L371.059 3.04417C371.45 3.26817 369.886 3.47873 367.609 3.51457C367.379 3.51905 367.149 3.51905 366.919 3.51905V3.52129Z" fill="white"/>
<path d="M183.632 71.5322C182.321 71.5322 181.033 71.4717 180.205 71.3619L166.29 69.4691C164.933 69.2855 165.37 69.0301 167.256 68.8979C169.142 68.7658 171.764 68.8083 173.121 68.992L187.036 70.8848C188.393 71.0685 187.956 71.3239 186.07 71.456C185.334 71.5075 184.483 71.5322 183.632 71.5322Z" fill="white"/>
<path d="M1130.22 103.087C1128.17 103.087 1126.38 102.941 1126.08 102.74L1123.16 100.885C1122.81 100.661 1124.38 100.453 1126.68 100.419C1128.95 100.386 1131.12 100.538 1131.46 100.762L1134.38 102.617C1134.73 102.841 1133.16 103.049 1130.86 103.083C1130.66 103.085 1130.43 103.087 1130.22 103.087Z" fill="white"/>
<path d="M512.164 23.5671C510.485 23.5671 508.921 23.4685 508.254 23.3095C507.403 23.0989 508.438 22.8615 510.6 22.7763L566.49 20.6103C568.652 20.5274 571.09 20.6282 571.964 20.8387C572.815 21.0493 571.78 21.2867 569.618 21.3719L513.728 23.5379C513.222 23.5581 512.693 23.5671 512.164 23.5671Z" fill="white"/>
<path d="M697.107 97.6752C696.532 97.6752 695.957 97.664 695.405 97.6394L665.206 96.3402C663.09 96.2483 662.124 96.0064 663.067 95.8003C664.01 95.5942 666.494 95.5002 668.61 95.592L698.809 96.8912C700.925 96.983 701.891 97.225 700.971 97.431C700.281 97.5834 698.74 97.6752 697.13 97.6752H697.107Z" fill="white"/>
<path d="M1034.89 89.0804C1034.24 89.0804 1033.6 89.0669 1032.98 89.0356C1030.91 88.9325 1030.08 88.6861 1031.14 88.4845L1059.68 83.0077C1060.74 82.8061 1063.27 82.7255 1065.34 82.8285C1067.41 82.9316 1068.23 83.178 1067.18 83.3796L1038.63 88.8564C1037.9 88.9997 1036.4 89.0804 1034.89 89.0804Z" fill="white"/>
<path d="M385.986 109.216C383.778 109.216 381.915 109.048 381.8 108.83C381.662 108.604 383.433 108.412 385.756 108.398L436.379 108.105C438.702 108.089 440.703 108.264 440.818 108.49C440.956 108.716 439.185 108.909 436.862 108.922L386.239 109.216C386.239 109.216 386.078 109.216 385.986 109.216Z" fill="white"/>
<path d="M304.267 19.4073C302.473 19.4073 300.794 19.2931 300.242 19.1161C299.575 18.8989 300.817 18.6704 303.048 18.6054L351.026 17.192C353.257 17.127 355.603 17.248 356.27 17.4653C356.937 17.6825 355.695 17.911 353.464 17.976L305.486 19.3894C305.072 19.4006 304.681 19.4073 304.267 19.4073Z" fill="white"/>
<path d="M23.897 8.94433C21.896 8.94433 20.125 8.80545 19.757 8.60609L8.326 2.34081C7.912 2.11905 9.453 1.90625 11.73 1.86593C14.03 1.82561 16.192 1.97569 16.606 2.19745L28.037 8.46273C28.451 8.68449 26.91 8.89729 24.633 8.93761C24.38 8.94209 24.127 8.94433 23.897 8.94433Z" fill="white"/>
<path d="M443.348 69.8321C441.324 69.8321 439.53 69.6887 439.208 69.4871L430.031 63.9117C429.663 63.6877 431.227 63.4772 433.527 63.4436C435.804 63.4077 437.989 63.5601 438.334 63.7841L447.511 69.3594C447.879 69.5834 446.315 69.794 444.015 69.8298C443.785 69.8343 443.555 69.8343 443.348 69.8343V69.8321Z" fill="white"/>
<path d="M808.427 52.4877C807.99 52.4877 807.553 52.481 807.116 52.4676L791.2 51.9613C788.992 51.8919 787.796 51.6589 788.509 51.4439C789.222 51.2288 791.591 51.1101 793.822 51.1818L809.738 51.688C811.946 51.7575 813.142 51.9904 812.429 52.2055C811.854 52.378 810.198 52.4877 808.427 52.4877Z" fill="white"/>
<path d="M337.272 27.9821C335.708 27.9821 334.213 27.897 333.477 27.7514C332.465 27.5476 333.339 27.3034 335.432 27.2049L354.706 26.2954C356.799 26.1969 359.306 26.282 360.318 26.4858C361.33 26.6897 360.456 26.9338 358.363 27.0324L339.089 27.9418C338.491 27.9687 337.87 27.9821 337.249 27.9821H337.272Z" fill="white"/>
<path d="M411.286 12.105C410.297 12.105 409.308 12.0714 408.503 12.0042L400.223 11.2963C398.475 11.1462 398.314 10.8886 399.832 10.7184C401.373 10.5482 404.018 10.5325 405.766 10.6803L414.046 11.3882C415.794 11.5382 415.955 11.7958 414.437 11.9661C413.609 12.0579 412.436 12.105 411.263 12.105H411.286Z" fill="white"/>
<path d="M406.824 82.7882C406.571 82.7882 406.318 82.7882 406.065 82.7815L384.353 82.394C382.076 82.3536 380.558 82.1386 380.972 81.9168C381.386 81.6951 383.571 81.5472 385.871 81.5876L407.583 81.9751C409.86 82.0154 411.378 82.2304 410.964 82.4522C410.596 82.6493 408.825 82.7882 406.824 82.7882Z" fill="white"/>
<path d="M880.854 108.109C878.646 108.109 876.783 107.941 876.668 107.724L874.276 103.822C874.138 103.596 875.909 103.403 878.232 103.389C880.555 103.372 882.533 103.548 882.671 103.775L885.063 107.677C885.201 107.903 883.43 108.096 881.107 108.109C881.015 108.109 880.946 108.109 880.854 108.109Z" fill="white"/>
<path d="M37.375 98.4682C35.604 98.4682 33.971 98.3607 33.396 98.1882L15.939 93.1101C15.203 92.8951 16.399 92.6644 18.584 92.5927C20.769 92.521 23.161 92.6375 23.897 92.8503L41.354 97.9284C42.09 98.1434 40.894 98.3741 38.709 98.4458C38.272 98.4593 37.812 98.4682 37.375 98.4682Z" fill="white"/>
<path d="M130.272 79.7933C129.237 79.7933 128.179 79.7552 127.374 79.6813L80.638 75.3581C78.959 75.2013 78.89 74.9437 80.477 74.7779C82.087 74.6144 84.732 74.6077 86.434 74.7622L133.17 79.0854C134.849 79.2422 134.918 79.4998 133.331 79.6656C132.503 79.7507 131.399 79.7933 130.272 79.7933Z" fill="white"/>
<path d="M646.001 2.04963C644.575 2.04963 643.172 1.97795 642.39 1.85027C641.194 1.65539 641.861 1.40451 643.862 1.28803L658.697 0.430108C660.698 0.313628 663.274 0.378588 664.47 0.573468C665.666 0.768348 664.999 1.01923 662.998 1.13571L648.163 1.99363C647.496 2.03171 646.76 2.05187 646.024 2.05187L646.001 2.04963Z" fill="white"/>
<path d="M107.824 12.5798C105.823 12.5798 104.052 12.4409 103.684 12.2415C103.27 12.0198 104.811 11.807 107.088 11.7667L139.909 11.1955C142.232 11.1551 144.371 11.303 144.785 11.527C145.199 11.7487 143.681 11.9615 141.381 12.0019L108.56 12.5731C108.307 12.5775 108.054 12.5798 107.824 12.5798Z" fill="white"/>
<path d="M699.407 108.759C697.337 108.759 695.52 108.609 695.244 108.405L687.976 103.203C687.654 102.979 689.264 102.773 691.587 102.742C693.91 102.711 696.003 102.867 696.325 103.094L703.593 108.295C703.915 108.519 702.305 108.725 699.982 108.756C699.798 108.759 699.591 108.761 699.407 108.761V108.759Z" fill="white"/>
<path d="M92.805 3.22788C91.356 3.22788 89.953 3.1562 89.171 3.02628L79.511 1.42468C78.338 1.2298 79.005 0.978922 81.006 0.864682C83.007 0.750442 85.583 0.815402 86.756 1.01028L96.416 2.61188C97.589 2.80676 96.922 3.05764 94.921 3.17188C94.254 3.20996 93.518 3.22788 92.805 3.22788Z" fill="white"/>
<path d="M138.115 103.831C136.16 103.831 134.389 103.696 133.998 103.501L124.085 98.7303C123.625 98.5085 125.097 98.2935 127.374 98.2487C129.674 98.2039 131.859 98.3472 132.319 98.569L142.232 103.34C142.692 103.562 141.22 103.777 138.943 103.822C138.667 103.826 138.391 103.831 138.115 103.831Z" fill="white"/>
<path d="M427.961 92.2275C427.34 92.2275 426.696 92.214 426.098 92.1849C424.028 92.0841 423.177 91.8377 424.212 91.6361L433.343 89.8531C434.378 89.6515 436.908 89.5686 438.978 89.6694C441.048 89.7702 441.899 90.0166 440.864 90.2182L431.733 92.0012C430.997 92.1446 429.502 92.2275 427.961 92.2275Z" fill="white"/>
<path d="M632.868 37.8337C631.695 37.8337 630.545 37.7866 629.717 37.6948L612.329 35.7706C610.788 35.6004 610.972 35.3428 612.72 35.1927C614.468 35.0426 617.113 35.0605 618.654 35.2308L636.042 37.1549C637.583 37.3252 637.399 37.5828 635.651 37.7329C634.846 37.8023 633.857 37.8359 632.868 37.8359V37.8337Z" fill="white"/>
<path d="M617.527 29.0192C616.101 29.0192 614.721 28.9498 613.939 28.8221L606.694 27.6685C605.475 27.4759 606.096 27.2227 608.097 27.1063C610.075 26.9875 612.674 27.048 613.87 27.2429L621.115 28.3965C622.334 28.5891 621.713 28.8423 619.712 28.9587C619.022 28.9991 618.263 29.0192 617.527 29.0192Z" fill="white"/>
<path d="M955.236 13.1488C955.052 13.1488 954.868 13.1488 954.684 13.1443L920 12.6963C917.7 12.6672 916.067 12.4611 916.389 12.2371C916.688 12.0131 918.827 11.8541 921.104 11.8854L955.788 12.3334C958.088 12.3625 959.721 12.5686 959.399 12.7926C959.123 12.9987 957.306 13.1488 955.236 13.1488Z" fill="white"/>
<path d="M316.296 9.99487C314.686 9.99487 313.145 9.90527 312.455 9.75071L286.511 4.07456C285.568 3.86848 286.511 3.62655 288.65 3.53471C290.766 3.44287 293.25 3.53471 294.193 3.74303L320.137 9.41919C321.08 9.62527 320.137 9.86719 317.998 9.95903C317.446 9.98367 316.871 9.99487 316.296 9.99487Z" fill="white"/>
<path d="M18.032 74.6793C15.87 74.6793 14.03 74.5181 13.846 74.303L11.27 71.1782C11.086 70.952 12.811 70.7549 15.134 70.7369C17.457 70.7145 19.481 70.887 19.665 71.1133L22.241 74.2381C22.425 74.4643 20.7 74.6614 18.377 74.6793C18.262 74.6793 18.147 74.6793 18.032 74.6793Z" fill="white"/>
<path d="M328.417 38.3107C326.899 38.3107 325.427 38.2301 324.691 38.0912L307.303 34.8499C306.222 34.6505 307.027 34.4019 309.074 34.2966C311.121 34.1913 313.674 34.2697 314.755 34.4691L332.143 37.7104C333.224 37.9097 332.419 38.1584 330.372 38.2637C329.751 38.295 329.084 38.3107 328.44 38.3107H328.417Z" fill="white"/>
<path d="M737.449 16.4528C736.115 16.4528 734.827 16.3923 733.999 16.2781C732.665 16.0922 733.125 15.8368 735.034 15.7069L780.275 12.6202C782.184 12.4903 784.806 12.5351 786.14 12.721C787.474 12.9069 787.014 13.1623 785.105 13.2922L739.864 16.3789C739.128 16.4282 738.277 16.4528 737.449 16.4528Z" fill="white"/>
<path d="M143.014 90.7827C142.232 90.7827 141.427 90.7603 140.737 90.7178L97.658 87.9939C95.703 87.8707 95.151 87.6176 96.416 87.4272C97.681 87.2368 100.28 87.1831 102.235 87.3063L145.314 90.0301C147.269 90.1533 147.821 90.4064 146.556 90.5968C145.751 90.7178 144.394 90.7827 143.014 90.7827Z" fill="white"/>
<path d="M56.212 108.512C56.005 108.512 55.775 108.512 55.545 108.508C53.245 108.472 51.681 108.264 52.049 108.04L59.639 103.329C60.007 103.105 62.169 102.955 64.446 102.988C66.746 103.024 68.31 103.233 67.942 103.457L60.352 108.167C60.03 108.369 58.236 108.512 56.212 108.512Z" fill="white"/>
<path d="M357.604 63.9722C355.764 63.9722 354.062 63.8534 353.556 63.672L350.29 62.5251C349.669 62.3078 350.98 62.0816 353.211 62.0211C355.442 61.9606 357.765 62.0883 358.386 62.3056L361.652 63.4525C362.273 63.6698 360.962 63.896 358.731 63.9565C358.363 63.9677 357.972 63.9722 357.604 63.9722Z" fill="white"/>
<path d="M225.354 41.6236C224.365 41.6236 223.376 41.59 222.594 41.5228C220.846 41.3728 220.662 41.1152 222.203 40.9449L229.402 40.143C230.92 39.9728 233.588 39.9548 235.336 40.1049C237.084 40.255 237.268 40.5126 235.727 40.6828L228.528 41.4848C227.7 41.5766 226.527 41.6236 225.354 41.6236Z" fill="white"/>
<path d="M423.982 21.6989C423.269 21.6989 422.556 21.681 421.889 21.6452C419.865 21.5332 419.175 21.2823 420.325 21.0852L436.103 18.4061C437.253 18.209 439.829 18.1418 441.853 18.2538C443.877 18.3658 444.567 18.6167 443.417 18.8138L427.639 21.4929C426.857 21.625 425.454 21.6989 423.982 21.6989Z" fill="white"/>
<path d="M603.566 75.2506C602.163 75.2506 600.806 75.1834 600.001 75.0602L586.891 73.0374C585.649 72.847 586.247 72.5939 588.202 72.473C590.18 72.352 592.779 72.4102 593.998 72.6006L607.108 74.6234C608.35 74.8138 607.752 75.0669 605.797 75.1878C605.107 75.2304 604.325 75.2506 603.566 75.2506Z" fill="white"/>
<path d="M1050.64 6.32354C1048.66 6.32354 1046.91 6.1869 1046.52 5.99202C1046.09 5.77026 1047.56 5.55522 1049.84 5.51042L1103.61 4.48674C1105.89 4.44194 1108.09 4.58754 1108.55 4.8093C1108.99 5.03106 1107.52 5.2461 1105.24 5.2909L1051.47 6.31458C1051.19 6.31906 1050.92 6.3213 1050.66 6.3213L1050.64 6.32354Z" fill="white"/>
<path d="M303.37 46.9124C303.094 46.9124 302.818 46.9101 302.542 46.9057L288.236 46.6301C285.959 46.5853 284.464 46.3703 284.924 46.1485C285.384 45.9268 287.592 45.7812 289.869 45.826L304.175 46.1015C306.452 46.1463 307.924 46.3613 307.487 46.5831C307.096 46.778 305.325 46.9124 303.37 46.9124Z" fill="white"/>
<path d="M257.807 27.0144C256.381 27.0144 254.978 26.9427 254.196 26.8151L238.487 24.257C237.291 24.0621 237.935 23.8112 239.936 23.6947C241.937 23.5783 244.513 23.641 245.709 23.8359L261.418 26.3939C262.614 26.5888 261.97 26.8397 259.969 26.9562C259.302 26.9965 258.543 27.0144 257.807 27.0144Z" fill="white"/>
<path d="M32.039 17.5615C31.694 17.5615 31.326 17.5571 30.981 17.5481L13.317 17.1023C11.063 17.0463 9.706 16.8223 10.304 16.6028C10.902 16.3833 13.179 16.2534 15.433 16.3094L33.097 16.7551C35.351 16.8111 36.708 17.0351 36.11 17.2547C35.627 17.4383 33.902 17.5615 32.039 17.5615Z" fill="white"/>
<path d="M1107.68 68.273C1107.52 68.273 1107.36 68.273 1107.2 68.2707L1094.22 68.1251C1091.92 68.0983 1090.27 67.8967 1090.52 67.6704C1090.8 67.4464 1092.89 67.2829 1095.19 67.3098L1108.16 67.4554C1110.46 67.4823 1112.12 67.6839 1111.87 67.9101C1111.61 68.1184 1109.8 68.273 1107.7 68.273H1107.68Z" fill="white"/>
<path d="M1099.22 58.464C1098.87 58.464 1098.53 58.4595 1098.18 58.4506L1078.24 57.96C1075.99 57.904 1074.63 57.6822 1075.18 57.4627C1075.76 57.2432 1078.03 57.111 1080.29 57.1648L1100.23 57.6554C1102.48 57.7114 1103.84 57.9331 1103.29 58.1526C1102.8 58.3386 1101.1 58.4618 1099.22 58.4618V58.464Z" fill="white"/>
<path d="M677.12 86.6342C675.004 86.6342 673.164 86.4774 672.934 86.2669L668.84 82.4745C668.587 82.2505 670.266 82.0489 672.589 82.0243C674.889 82.0019 676.959 82.1632 677.212 82.3894L681.306 86.1817C681.559 86.4057 679.88 86.6073 677.557 86.632C677.396 86.632 677.258 86.632 677.12 86.632V86.6342Z" fill="white"/>
<path d="M910.8 36.9824C908.914 36.9824 907.212 36.8592 906.729 36.671L891.986 30.9232C891.434 30.7037 892.791 30.4819 895.045 30.4259C897.276 30.3722 899.576 30.5043 900.151 30.7238L914.894 36.4717C915.446 36.6912 914.089 36.913 911.835 36.969C911.49 36.9779 911.145 36.9802 910.823 36.9802L910.8 36.9824Z" fill="white"/>
<path d="M795.662 108.709H795.57L777.538 108.674C775.215 108.669 773.375 108.481 773.421 108.255C773.467 108.028 775.376 107.858 777.722 107.854L795.754 107.89C798.077 107.894 799.917 108.082 799.871 108.308C799.825 108.532 797.962 108.709 795.662 108.709Z" fill="white"/>
</svg>
